<svg id="Layer_1" data-name="Layer 1" xmlns="http://www.w3.org/2000/svg" viewBox="0 0 2500 2500"><defs><style>.cls-1{fill:#fff;}.cls-1,.cls-2{fill-rule:evenodd;}.cls-2{fill:#28539c;}</style></defs><title>aol-uk</title><path class="cls-1" d="M0,0H2500V2500H0Z"/><path class="cls-2" d="M732.07,1775.09H491L267.89,2367.92H499.17l26.06-78.16h158l24.43,78.16H950.32L732.07,1775.09ZM556.18,2157.82c8.15-31,29.32-123.77,48.87-195.46,19.55,71.69,39.08,164.5,47.22,195.46Zm1327.39-382.73H1691.39v592.83h399v-197H1904.74V1775.1h-21.17Zm-605.89-19.55c-185.65,0-337.13,141.69-337.13,315.94s151.48,314.35,337.13,314.35,337.15-140.08,337.15-314.35S1463.37,1755.54,1277.68,1755.54Zm0,421.82c-63.51,0-115.62-47.23-115.62-105.88s52.11-105.84,115.62-105.84,115.64,47.22,115.64,105.84S1341.21,2177.36,1277.68,2177.36Zm918.58-566.78a36.16,36.16,0,0,1,35.85,35.81c0,19.57-16.31,34.22-35.85,34.22s-34.2-14.65-34.2-34.22S2176.72,1610.58,2196.26,1610.58Zm0,66.77a30.93,30.93,0,0,0,31-30.9v-.06c0-17.89-13-30.93-31-30.93-16.28,0-29.3,13-29.3,30.93C2167,1662.7,2180,1677.35,2196.26,1677.35Zm1.63-29.3h-9.77v19.54h-4.88v-42.35h16.31c9.76,0,14.65,3.27,14.65,11.4s-4.89,11.41-11.4,11.41l13,19.54h-6.5Zm-9.77-3.27h11.41c4.88,0,9.77-1.61,9.77-8.16s-4.89-8.12-9.77-8.12h-11.41v16.28Zm4.88,656.36c17.93,0,34.22,16.31,34.22,35.85s-16.31,35.81-34.22,35.81a35.83,35.83,0,0,1,0-71.66Zm0,66.77c16.31,0,29.34-13,29.34-30.94s-13-31-29.34-31c-17.89,0-30.93,13-30.93,31S2175.11,2367.91,2193,2367.91Zm0-29.31h-9.76v19.54h-4.89V2315.8h16.31c9.77,0,14.65,4.88,14.65,11.41,0,8.12-4.88,11.39-11.41,11.39l13,19.54h-6.5L2193,2338.6Zm-9.76-3.27h11.41c4.88,0,9.76-1.61,9.76-8.12s-4.88-6.53-9.76-6.53h-11.41v14.65ZM1012.21,867.9s-239.41,473.94,120.53,614S1680,1167.58,1680,1167.58s-27.69,389.24-346.92,508.16h793.17L1650.69,861.39c44,281.75-149.85,467.42-149.85,467.42s146.58-460.92-131.92-573.3c-360-145-584.71,306.19-584.71,306.19S963.36,345.09,1492.7,581.25L1227.19,110.56,329.8,1675.74H979.64C570.84,1309.27,1012.21,867.9,1012.21,867.9Z"/></svg>