<svg id="Layer_1" data-name="Layer 1" xmlns="http://www.w3.org/2000/svg" xmlns:xlink="http://www.w3.org/1999/xlink" viewBox="0 0 255.3 254.67"><defs><style>.cls-1{fill:url(#linear-gradient);}.cls-2{fill:#2e5c91;}.cls-3{fill:url(#radial-gradient);}.cls-4{fill:#699dd3;}.cls-5{fill:url(#radial-gradient-2);}.cls-6{fill:url(#radial-gradient-3);}.cls-7{stroke-width:10.07px;fill:url(#linear-gradient-2);stroke:url(#linear-gradient-3);}.cls-8{fill:#fff;}</style><linearGradient id="linear-gradient" x1="166.38" y1="179.86" x2="233.04" y2="187.09" gradientTransform="matrix(1, 0, 0, -1, 3.39, 265.42)" gradientUnits="userSpaceOnUse"><stop offset="0" stop-color="#b2cde9"/><stop offset="1" stop-color="#c4dbee"/></linearGradient><radialGradient id="radial-gradient" cx="131.29" cy="1003.63" r="108.61" gradientTransform="matrix(-0.01, 0.56, 1.03, 0.01, -909.35, -69.75)" gradientUnits="userSpaceOnUse"><stop offset="0" stop-color="#658db6"/><stop offset="0.77" stop-color="#527fab"/><stop offset="1" stop-color="#4071a0"/></radialGradient><radialGradient id="radial-gradient-2" cx="-205.53" cy="537.55" r="68.69" gradientTransform="matrix(0.81, 1.7, 2.15, -1.03, -858.56, 1025.45)" gradientUnits="userSpaceOnUse"><stop offset="0" stop-color="#d0e2f1"/><stop offset="0.86" stop-color="#cadef0"/><stop offset="1" stop-color="#95bee3"/></radialGradient><radialGradient id="radial-gradient-3" cx="-1055.96" cy="610" r="67.47" gradientTransform="matrix(-1.29, -0.09, -0.11, 1.71, -1201.14, -1011.29)" gradientUnits="userSpaceOnUse"><stop offset="0" stop-color="#96d0e1"/><stop offset="0.68" stop-color="#89b7e1"/><stop offset="1" stop-color="#699dd3"/></radialGradient><linearGradient id="linear-gradient-2" x1="-289.9" y1="0.25" x2="-289.61" y2="111.36" gradientTransform="matrix(0.77, 0, 0, -0.78, 351.67, 170.5)" gradientUnits="userSpaceOnUse"><stop offset="0" stop-color="#3b79bc"/><stop offset="1" stop-color="#94b8e0"/></linearGradient><linearGradient id="linear-gradient-3" x1="-290.12" y1="126.68" x2="-289.4" y2="-17.68" gradientTransform="matrix(0.77, 0, 0, -0.78, 351.67, 170.5)" gradientUnits="userSpaceOnUse"><stop offset="0" stop-color="#d7def0"/><stop offset="0.5" stop-color="#fff"/><stop offset="1" stop-color="#d5def0"/></linearGradient></defs><title>chormium</title><path id="path3655" class="cls-1" d="M245.32,78.36c0,17.8-22.48,39.68-52.07,39.68S125.19,99.77,125.19,82s24-32.23,53.58-32.23c22.61,0,52.66,20.77,64.13,23.11C243.8,74.79,244.45,76.17,245.32,78.36Z" transform="translate(-0.35 -1.17)"/><path id="path3655-4-8" class="cls-2" d="M25.72,53.2c14.06-10.91,40.11-1.41,58.25,22s20.1,58,6,68.92-38.82-6-57-29.38c-13.86-17.86-4.6-46.79-9.78-57.28C24,56.14,24.83,54.63,25.72,53.2Z" transform="translate(-0.35 -1.17)"/><path id="path3596" class="cls-3" d="M242.9,72.84c-8,0-69.36.33-122.28.08-19.73,5.8-36,15.06-44.5,33.11-6.07-5.16-46.28-47.95-50.44-52.75C61.33,6,110.33,1.54,119.85,1.54s80.24-9.81,123.05,71.3Z" transform="translate(-0.35 -1.17)"/><path id="path3655-4" class="cls-4" d="M114.65,255.37c-14.19-10.74-16.55-42,1.3-65.55s46.61-39.69,60.81-28.95,8.46,44.26-9.4,67.85c-13.64,18-40.31,19.18-49.1,26.92A29.09,29.09,0,0,1,114.65,255.37Z" transform="translate(-0.35 -1.17)"/><path id="path3596-1" class="cls-5" d="M118.26,255.64c4.07-6.84,32.78-60.09,59.85-105.56,5-20,6.07-38.21-5.18-54.69,7.52-2.61,66.15-15.88,72.39-17,22.68,54.72,1.65,99.19-3.18,107.4s-32.26,74.12-123.88,69.87Z" transform="translate(-0.35 -1.17)"/><path id="path3596-1-7" class="cls-6" d="M23.3,57.37c3.94,6.92,34.9,60,61.08,105.94,14.88,14.21,31.45,22.13,51.33,20.48-1.44,7.83-18.88,65.6-21,71.59C56,248.09,27.66,207.85,22.91,199.59S-25.62,135,23.3,57.37Z" transform="translate(-0.35 -1.17)"/><path id="path3645" class="cls-7" d="M179.6,128.2a51.9,51.9,0,1,1-51.9-52.12A52,52,0,0,1,179.6,128.2Z" transform="translate(-0.35 -1.17)"/><path id="rect3782" class="cls-8" d="M167.38,102c21,19.42,18.21,33.57,11.43,50C175.27,126.66,176.14,115.1,167.38,102Z" transform="translate(-0.35 -1.17)"/><path id="rect3782-4" class="cls-8" d="M96.82,175.49C71.1,159.05,63,123.56,86.81,104,74.48,126.41,79.73,140.75,96.82,175.49Z" transform="translate(-0.35 -1.17)"/></svg>