<svg id="Layer_1" data-name="Layer 1" xmlns="http://www.w3.org/2000/svg" xmlns:xlink="http://www.w3.org/1999/xlink" viewBox="0 0 255.56 255.56"><defs><style>.cls-1,.cls-2,.cls-3{fill-rule:evenodd;}.cls-1{fill:url(#linear-gradient);}.cls-2{fill:#fff;}.cls-3{fill:#ec1c24;}</style><linearGradient id="linear-gradient" x1="-211.25" y1="510.28" x2="-211.25" y2="428.5" gradientTransform="matrix(3.12, 0, 0, -3.12, 788.38, 1594.62)" gradientUnits="userSpaceOnUse"><stop offset="0" stop-color="#f5f5f6"/><stop offset="1" stop-color="#ededee"/></linearGradient></defs><title>yandeex</title><g id="g6661"><g id="g84"><path id="path86" class="cls-1" d="M256,127.78A127.78,127.78,0,1,1,128.22,0,127.78,127.78,0,0,1,256,127.78" transform="translate(-0.44)"/></g><path id="path94" class="cls-2" d="M249.81,127.78A121.59,121.59,0,1,1,128.22,6.19,121.59,121.59,0,0,1,249.81,127.78" transform="translate(-0.44)"/><path id="path100" class="cls-3" d="M210.48,75.07,142.09,142v83.16c0,1.49-6.48,2.69-13.87,2.79-7.09-.1-13.88-1.3-13.88-2.79V142L46,75.07c-1.1-1.1,2.39-6.29,7.79-11.68s10.68-8.88,11.68-7.78l62.69,61.19,62.69-61.19c1.1-1.1,6.29,2.39,11.68,7.78s9,10.58,8,11.68" transform="translate(-0.44)"/></g></svg>